# xmcd
#
# Track frame offsets: 
#        150
#        13960
#        30336
#        47605
#        63998
#        84797
#        100790
#        116572
#        141026
#        158780
#        175430
#        188348
#        204369
#        217181
#        237324
#        254761
#        271219
#        286478
#        299447
#        312106
#
# Disc length: 4353 seconds
#
# Revision: 0
# Processed by: cddbd v1.5.2PL0 Copyright (c) Steve Scherf et al.
# Submitted via: ExactAudioCopy v0.99pb4
#
DISCID=1e10ff14
DTITLE=Various Artist - 100 Hits Love
DYEAR=2008
DGENRE=Pop
TTITLE0=Diana Ross and Marvin Gaye - You Are Everything
TTITLE1=Commodores - Three Times A Lady
TTITLE2=Captain and Tennille - Do That To Me One More Time
TTITLE3=Atlantic Starr - Secret Lovers
TTITLE4=Champaign - How 'Bout Us
TTITLE5=Jermaine Jackson - Let's Get Serious
TTITLE6=The Real Thing - You To Me Are Everything
TTITLE7=Stephanie Mills - Never Knew Love Like This Before
TTITLE8=Peaches and Herb - Reunited
TTITLE9=Billy Paul - Me and Mrs. Jones
TTITLE10=Smokey Robinson and The Miracles - The Tracks Of My Tears
TTITLE11=Dusty Springfield - The Look Of Love
TTITLE12=Mary Wells - My Guy
TTITLE13=Lionel Richie and Diana Ross - Endless Love
TTITLE14=Billy Ocean - Suddenly
TTITLE15=Billy Preston and Syreeta - With You I'M Born Again
TTITLE16=Harold Melvin and The Blue Notes - If You Don'T Know Me By Now
TTITLE17=The Isley Brothers - This Old Heart Of Mine (Is Weak For You)
TTITLE18=First Choice - Armed And Extremely Dangerous
TTITLE19=The Delfonics - Can'T Go On Living
EXTD=
EXTT0=
EXTT1=
EXTT2=
EXTT3=
EXTT4=
EXTT5=
EXTT6=
EXTT7=
EXTT8=
EXTT9=
EXTT10=
EXTT11=
EXTT12=
EXTT13=
EXTT14=
EXTT15=
EXTT16=
EXTT17=
EXTT18=
EXTT19=
PLAYORDER=
